<svg width="16" height="16" viewBox="0 0 16 16" fill="none" xmlns="http://www.w3.org/2000/svg">
<g id="menu 2 1">
<g id="Group">
<g id="Group_2">
<path id="Vector" d="M12.742 2.45718L2.34315 12.8561C2.09125 13.108 2.09125 13.519 2.34315 13.7709C2.59506 14.0228 3.00606 14.0228 3.25797 13.7709L13.6569 3.372C13.9088 3.12009 13.9088 2.70908 13.6569 2.45718C13.405 2.20527 12.9939 2.20527 12.742 2.45718Z" fill="white" style="fill:white;fill-opacity:1;"/>
<path id="Vector_2" d="M3.25796 2.45718L13.6568 12.8561C13.9088 13.108 13.9088 13.519 13.6568 13.7709C13.4049 14.0228 12.9939 14.0228 12.742 13.7709L2.34314 3.372C2.09124 3.12009 2.09123 2.70908 2.34314 2.45718C2.59505 2.20527 3.00605 2.20527 3.25796 2.45718Z" fill="white" style="fill:white;fill-opacity:1;"/>
</g>
</g>
</g>
</svg>
