<svg width="16" height="16" viewBox="0 0 16 16" fill="none" xmlns="http://www.w3.org/2000/svg">
<g id="menu 2 1">
<path id="Vector" d="M11.3531 7.9999C11.3531 7.64365 11.0625 7.35303 10.7063 7.35303H0.64375C0.290625 7.35303 0 7.64365 0 7.9999C0 8.35615 0.290625 8.64678 0.646875 8.64678H10.7094C11.0656 8.64678 11.3531 8.35615 11.3531 7.9999Z" fill="white" style="fill:white;fill-opacity:1;"/>
<g id="Group">
<g id="Group_2">
<path id="Vector_2" d="M15.3531 2.4502H0.646875C0.290625 2.4502 0 2.74082 0 3.09707C0 3.45332 0.290625 3.74395 0.646875 3.74395H15.3531C15.7094 3.74395 16 3.45332 16 3.09707C16 2.74082 15.7094 2.4502 15.3531 2.4502Z" fill="white" style="fill:white;fill-opacity:1;"/>
</g>
</g>
<g id="Group_3">
<g id="Group_4">
<path id="Vector_3" d="M15.3531 12.2563H0.646875C0.290625 12.2563 0 12.547 0 12.9032C0 13.2595 0.290625 13.5501 0.646875 13.5501H15.3531C15.7094 13.5501 16 13.2595 16 12.9032C16 12.547 15.7094 12.2563 15.3531 12.2563Z" fill="white" style="fill:white;fill-opacity:1;"/>
</g>
</g>
</g>
</svg>
