<svg xmlns="http://www.w3.org/2000/svg" width="18" height="19" viewBox="0 0 18 19" fill="none">
  <path d="M16.7135 0.960307C15.9225 1.03062 14.6604 1.24859 14.4038 1.35757C14.0909 1.49117 13.2436 2.28218 12.6354 3.01343C11.6089 4.24742 10.0866 6.44117 9.04245 8.18492C8.05456 9.83726 6.82058 12.2033 6.02605 13.9646C5.95222 14.1298 5.8573 14.3337 5.81862 14.4146L5.7448 14.5693L5.44948 14.0982C4.71823 12.938 4.13815 12.3052 3.39636 11.8623C2.98503 11.6162 2.80573 11.5599 2.42605 11.5599C2.1237 11.5564 2.07097 11.5669 1.86003 11.6654C1.3362 11.915 0.79128 12.3615 0.661202 12.6568C0.48542 13.0505 0.601436 13.3177 1.27644 14.049C2.08855 14.9349 2.72487 15.7505 3.49831 16.9002C4.06081 17.7369 4.20495 17.9127 4.39128 17.9654C4.89401 18.1166 6.11394 18.0919 6.67292 17.9162C7.01042 17.8072 7.16159 17.5541 7.80495 16.0388C8.65222 14.0279 8.76472 13.7748 9.29206 12.699C11.0182 9.16578 13.5389 5.37593 15.803 2.89039C15.9999 2.67242 16.5975 2.07476 17.0757 1.61421C17.2514 1.44546 17.4026 1.26968 17.4096 1.22398C17.4342 1.10445 17.3815 0.995463 17.2796 0.956791C17.1776 0.91812 17.1776 0.91812 16.7135 0.960307Z" fill="#60AC22" style="fill:#60AC22;fill:color(display-p3 0.3768 0.6749 0.1322);fill-opacity:1;"/>
</svg>