<svg xmlns="http://www.w3.org/2000/svg" width="17" height="17" viewBox="0 0 17 17" fill="none" plerdy-tracking-id="23225367701">
  <g clip-path="url(#clip0_213_4241)">
    <path d="M8.5 0C3.81281 0 0 3.81281 0 8.5C0 13.1872 3.81281 17 8.5 17C13.1872 17 17 13.1865 17 8.5C17 3.81348 13.1872 0 8.5 0ZM8.5 15.6832C4.5397 15.6832 1.3168 12.461 1.3168 8.5C1.3168 4.53903 4.5397 1.3168 8.5 1.3168C12.461 1.3168 15.6832 4.53903 15.6832 8.5C15.6832 12.461 12.4603 15.6832 8.5 15.6832Z" fill="#60AC22" style="fill:#60AC22;fill:color(display-p3 0.3768 0.6749 0.1322);fill-opacity:1;"></path>
    <path d="M12.4 5.54375C12.1321 5.30013 11.7153 5.31923 11.4704 5.5885L7.45411 10.011L5.51378 8.03846C5.25765 7.77905 4.84155 7.7751 4.5828 8.03056C4.32338 8.28536 4.31943 8.70213 4.5749 8.96154L7.00374 11.4306C7.12818 11.557 7.29672 11.6274 7.47316 11.6274C7.47712 11.6274 7.48173 11.6274 7.48568 11.6281C7.6674 11.6241 7.8386 11.5464 7.96039 11.4121L12.4448 6.4741C12.6891 6.20412 12.6693 5.78802 12.4 5.54375Z" fill="#60AC22" style="fill:#60AC22;fill:color(display-p3 0.3768 0.6749 0.1322);fill-opacity:1;"></path>
  </g>
  <defs>
    <clipPath id="clip0_213_4241">
      <rect width="17" height="17" fill="white" style="fill:white;fill-opacity:1;"></rect>
    </clipPath>
  </defs>
</svg>