<!-- <svg xmlns="http://www.w3.org/2000/svg" class="icon icon-remove" viewBox="0 0 16 16"><path fill="currentColor" d="M14 3h-3.53a3.07 3.07 0 0 0-.6-1.65C9.44.82 8.8.5 8 .5s-1.44.32-1.87.85A3.06 3.06 0 0 0 5.53 3H2a.5.5 0 0 0 0 1h1.25v10c0 .28.22.5.5.5h8.5a.5.5 0 0 0 .5-.5V4H14a.5.5 0 0 0 0-1M6.91 1.98c.23-.29.58-.48 1.09-.48s.85.19 1.09.48c.2.24.3.6.36 1.02h-2.9c.05-.42.17-.78.36-1.02m4.84 11.52h-7.5V4h7.5z"/><path fill="currentColor" d="M6.55 5.25a.5.5 0 0 0-.5.5v6a.5.5 0 0 0 1 0v-6a.5.5 0 0 0-.5-.5m2.9 0a.5.5 0 0 0-.5.5v6a.5.5 0 0 0 1 0v-6a.5.5 0 0 0-.5-.5"/></svg> -->
<svg xmlns="http://www.w3.org/2000/svg" width="21" height="26" viewBox="0 0 21 26" fill="none">
  <path d="M18.625 3.95H14.55V3.25C14.55 1.98175 13.5183 0.95 12.25 0.95H9.25C7.98175 0.95 6.95 1.98175 6.95 3.25V3.95H2.875C1.81351 3.95 0.95 4.81351 0.95 5.875V8.5C0.95 8.9418 1.3082 9.3 1.75 9.3H2.1122L2.75788 22.8594C2.81639 24.0877 3.82556 25.05 5.05525 25.05H16.4447C17.6745 25.05 18.6837 24.0877 18.7421 22.8594L19.3878 9.3H19.75C20.1918 9.3 20.55 8.9418 20.55 8.5V5.875C20.55 4.81351 19.6865 3.95 18.625 3.95ZM8.55 3.25C8.55 2.86408 8.86408 2.55 9.25 2.55H12.25C12.6359 2.55 12.95 2.86408 12.95 3.25V3.95H8.55V3.25ZM2.55 5.875C2.55 5.69585 2.69585 5.55 2.875 5.55H18.625C18.8042 5.55 18.95 5.69585 18.95 5.875V7.7H18.9478H18.9416H18.935H18.9282H18.921H18.9135H18.9056H18.8975H18.889H18.8802H18.8711H18.8617H18.852H18.8419H18.8316H18.8209H18.81H18.7987H18.7871H18.7753H18.7631H18.7506H18.7378H18.7247H18.7114H18.6977H18.6837H18.6695H18.6549H18.6401H18.625H18.6096H18.5939H18.5779H18.5616H18.5451H18.5283H18.5111H18.4938H18.4761H18.4582H18.44H18.4215H18.4027H18.3837H18.3644H18.3448H18.325H18.3049H18.2846H18.2639H18.2431H18.2219H18.2005H18.1789H18.157H18.1348H18.1124H18.0897H18.0668H18.0436H18.0202H17.9965H17.9726H17.9485H17.9241H17.8994H17.8746H17.8495H17.8241H17.7985H17.7727H17.7466H17.7204H17.6938H17.6671H17.6401H17.6129H17.5855H17.5578H17.53H17.5019H17.4735H17.445H17.4163H17.3873H17.3581H17.3287H17.2991H17.2693H17.2392H17.209H17.1786H17.1479H17.1171H17.086H17.0547H17.0233H16.9916H16.9598H16.9277H16.8955H16.863H16.8304H16.7975H16.7645H16.7313H16.6979H16.6644H16.6306H16.5966H16.5625H16.5282H16.4937H16.4591H16.4242H16.3892H16.354H16.3186H16.2831H16.2474H16.2115H16.1755H16.1393H16.1029H16.0663H16.0296H15.9928H15.9558H15.9186H15.8812H15.8438H15.8061H15.7683H15.7304H15.6923H15.654H15.6156H15.5771H15.5384H15.4995H15.4606H15.4214H15.3822H15.3428H15.3033H15.2636H15.2238H15.1838H15.1438H15.1036H15.0632H15.0228H14.9822H14.9415H14.9007H14.8597H14.8186H14.7774H14.7361H14.6947H14.6531H14.6115H14.5697H14.5278H14.4858H14.4437H14.4015H14.3591H14.3167H14.2742H14.2315H14.1888H14.1459H14.103H14.06H14.0168H13.9736H13.9303H13.8868H13.8433H13.7997H13.7561H13.7123H13.6684H13.6245H13.5804H13.5363H13.4921H13.4479H13.4035H13.3591H13.3146H13.27H13.2254H13.1807H13.1359H13.091H13.0461H13.0011H12.956H12.9109H12.8657H12.8205H12.7752H12.7298H12.6844H12.6389H12.5934H12.5478H12.5022H12.4565H12.4108H12.365H12.3192H12.2733H12.2274H12.1814H12.1354H12.0894H12.0433H11.9972H11.951H11.9049H11.8586H11.8124H11.7661H11.7198H11.6735H11.6271H11.5807H11.5343H11.4878H11.4414H11.3949H11.3484H11.3019H11.2554H11.2088H11.1622H11.1157H11.0691H11.0225H10.9759H10.9293H10.8827H10.8361H10.7894H10.7428H10.6962H10.6496H10.6029H10.5563H10.5097H10.4631H10.4165H10.3699H10.3233H10.2768H10.2302H10.1837H10.1371H10.0906H10.0441H9.99766H9.95121H9.90477H9.85837H9.81199H9.76563H9.7193H9.673H9.62673H9.58049H9.53428H9.48811H9.44197H9.39587H9.3498H9.30378H9.25779H9.21185H9.16595H9.12009H9.07428H9.02852H8.9828H8.93714H8.89152H8.84596H8.80045H8.755H8.7096H8.66426H8.61898H8.57376H8.5286H8.4835H8.43847H8.3935H8.3486H8.30376H8.259H8.21431H8.16969H8.12514H8.08066H8.03627H7.99195H7.9477H7.90354H7.85946H7.81546H7.77155H7.72772H7.68398H7.64032H7.59675H7.55328H7.50989H7.4666H7.42341H7.3803H7.3373H7.29439H7.25159H7.20888H7.16628H7.12378H7.08138H7.03909H6.99691H6.95484H6.91288H6.87103H6.82929H6.78766H6.74616H6.70476H6.66349H6.62233H6.5813H6.54039H6.4996H6.45893H6.4184H6.37798H6.3377H6.29755H6.25753H6.21764H6.17788H6.13826H6.09878H6.05943H6.02022H5.98115H5.94223H5.90345H5.86481H5.82632H5.78797H5.74977H5.71173H5.67383H5.63609H5.59849H5.56106H5.52378H5.48666H5.44969H5.41289H5.37625H5.33977H5.30345H5.2673H5.23132H5.1955H5.15986H5.12438H5.08908H5.05395H5.01899H4.98421H4.94961H4.91518H4.88094H4.84688H4.813H4.7793H4.74579H4.71246H4.67932H4.64638H4.61362H4.58105H4.54868H4.5165H4.48452H4.45273H4.42114H4.38975H4.35856H4.32758H4.2968H4.26622H4.23585H4.20568H4.17573H4.14598H4.11645H4.08713H4.05802H4.02913H4.00046H3.972H3.94376H3.91575H3.88795H3.86038H3.83303H3.80591H3.77902H3.75236H3.72592H3.69972H3.67374H3.64801H3.6225H3.59724H3.57221H3.54742H3.52287H3.49856H3.4745H3.45068H3.4271H3.40377H3.38069H3.35786H3.33529H3.31296H3.29089H3.26907H3.2475H3.2262H3.20515H3.18437H3.16384H3.14358H3.12358H3.10385H3.08439H3.06519H3.04626H3.0276H3.00922H2.9911H2.97326H2.9557H2.93842H2.92141H2.90468H2.88824H2.87208H2.8562H2.8406H2.8253H2.81028H2.79554H2.7811H2.76696H2.7531H2.73954H2.72627H2.7133H2.70063H2.68826H2.67619H2.66442H2.65296H2.6418H2.63095H2.6204H2.61016H2.60024H2.59062H2.58132H2.57233H2.56365H2.5553H2.55V5.875ZM17.1439 22.7833C17.1261 23.1572 16.819 23.45 16.4447 23.45H5.05525C4.68092 23.45 4.37385 23.1572 4.35608 22.7833L3.714 9.3H17.786L17.1439 22.7833Z" fill="#C7C7C7" stroke="#C7C7C7" style="fill:#C7C7C7;fill:color(display-p3 0.7822 0.7822 0.7822);fill-opacity:1;stroke:#C7C7C7;stroke:color(display-p3 0.7822 0.7822 0.7822);stroke-opacity:1;" stroke-width="0.1"/>
  <path d="M10.75 22.05C11.1918 22.05 11.55 21.6918 11.55 21.25V11.5C11.55 11.0582 11.1918 10.7 10.75 10.7C10.3082 10.7 9.95 11.0582 9.95 11.5V21.25C9.95 21.6918 10.3081 22.05 10.75 22.05Z" fill="#C7C7C7" stroke="#C7C7C7" style="fill:#C7C7C7;fill:color(display-p3 0.7822 0.7822 0.7822);fill-opacity:1;stroke:#C7C7C7;stroke:color(display-p3 0.7822 0.7822 0.7822);stroke-opacity:1;" stroke-width="0.1"/>
  <path d="M14.5 22.05C14.9418 22.05 15.3 21.6918 15.3 21.25V11.5C15.3 11.0582 14.9418 10.7 14.5 10.7C14.0582 10.7 13.7 11.0582 13.7 11.5V21.25C13.7 21.6918 14.0581 22.05 14.5 22.05Z" fill="#C7C7C7" stroke="#C7C7C7" style="fill:#C7C7C7;fill:color(display-p3 0.7822 0.7822 0.7822);fill-opacity:1;stroke:#C7C7C7;stroke:color(display-p3 0.7822 0.7822 0.7822);stroke-opacity:1;" stroke-width="0.1"/>
  <path d="M7 22.05C7.4418 22.05 7.8 21.6918 7.8 21.25V11.5C7.8 11.0582 7.4418 10.7 7 10.7C6.5582 10.7 6.2 11.0582 6.2 11.5V21.25C6.2 21.6918 6.55815 22.05 7 22.05Z" fill="#C7C7C7" stroke="#C7C7C7" style="fill:#C7C7C7;fill:color(display-p3 0.7822 0.7822 0.7822);fill-opacity:1;stroke:#C7C7C7;stroke:color(display-p3 0.7822 0.7822 0.7822);stroke-opacity:1;" stroke-width="0.1"/>
</svg>