<svg xmlns="http://www.w3.org/2000/svg" width="29" height="16" viewBox="0 0 29 16" fill="none">
  <path d="M20 0.9999C19.9063 1.09286 19.8319 1.20346 19.7811 1.32532C19.7303 1.44718 19.7042 1.57789 19.7042 1.7099C19.7042 1.84191 19.7303 1.97262 19.7811 2.09448C19.8319 2.21634 19.9063 2.32694 20 2.4199L24.6 7.0199H1.06C0.794781 7.0199 0.540427 7.12526 0.352891 7.31279C0.165354 7.50033 0.0599976 7.75468 0.0599976 8.0199C0.0599976 8.28512 0.165354 8.53947 0.352891 8.72701C0.540427 8.91454 0.794781 9.0199 1.06 9.0199H24.58L20 13.5899C19.8137 13.7773 19.7092 14.0307 19.7092 14.2949C19.7092 14.5591 19.8137 14.8125 20 14.9999C20.1874 15.1862 20.4408 15.2907 20.705 15.2907C20.9692 15.2907 21.2226 15.1862 21.41 14.9999L27.77 8.6399C27.8556 8.55777 27.9237 8.45918 27.9702 8.35006C28.0168 8.24093 28.0408 8.12353 28.0408 8.0049C28.0408 7.88627 28.0168 7.76887 27.9702 7.65974C27.9237 7.55062 27.8556 7.45203 27.77 7.3699L21.42 0.9999C21.327 0.906171 21.2164 0.831777 21.0946 0.781009C20.9727 0.73024 20.842 0.704102 20.71 0.704102C20.578 0.704102 20.4473 0.73024 20.3254 0.781009C20.2036 0.831777 20.093 0.906171 20 0.9999Z" fill="#60AC22" style="fill:#60AC22;fill:color(display-p3 0.3768 0.6749 0.1322);fill-opacity:1;"/>
</svg>