<svg width="418" height="325" viewBox="0 0 418 325" fill="none" xmlns="http://www.w3.org/2000/svg">
<rect width="28" height="29" rx="14" fill="#05060B" style="fill:#05060B;fill:color(display-p3 0.0196 0.0235 0.0431);fill-opacity:1;"/>
<path d="M14.3 9.626C13.9533 9.626 13.65 9.50467 13.39 9.262C13.13 9.002 13 8.69 13 8.326C13 7.962 13.13 7.65 13.39 7.39C13.65 7.13 13.9533 7 14.3 7C14.664 7 14.976 7.13 15.236 7.39C15.496 7.65 15.626 7.962 15.626 8.326C15.626 8.69 15.496 9.002 15.236 9.262C14.976 9.50467 14.664 9.626 14.3 9.626ZM15.288 23.978H13.338V11.42H15.288V23.978Z" fill="#60AC22" style="fill:#60AC22;fill:color(display-p3 0.3768 0.6749 0.1322);fill-opacity:1;"/>
<rect x="93" width="29" height="29" rx="14.5" fill="#05060B" style="fill:#05060B;fill:color(display-p3 0.0196 0.0235 0.0431);fill-opacity:1;"/>
<path d="M108.3 9.626C107.953 9.626 107.65 9.50467 107.39 9.262C107.13 9.002 107 8.69 107 8.326C107 7.962 107.13 7.65 107.39 7.39C107.65 7.13 107.953 7 108.3 7C108.664 7 108.976 7.13 109.236 7.39C109.496 7.65 109.626 7.962 109.626 8.326C109.626 8.69 109.496 9.002 109.236 9.262C108.976 9.50467 108.664 9.626 108.3 9.626ZM109.288 23.978H107.338V11.42H109.288V23.978Z" fill="#60AC22" style="fill:#60AC22;fill:color(display-p3 0.3768 0.6749 0.1322);fill-opacity:1;"/>
<rect x="186" width="29" height="29" rx="14.5" fill="#05060B" style="fill:#05060B;fill:color(display-p3 0.0196 0.0235 0.0431);fill-opacity:1;"/>
<path d="M201.3 9.626C200.953 9.626 200.65 9.50467 200.39 9.262C200.13 9.002 200 8.69 200 8.326C200 7.962 200.13 7.65 200.39 7.39C200.65 7.13 200.953 7 201.3 7C201.664 7 201.976 7.13 202.236 7.39C202.496 7.65 202.626 7.962 202.626 8.326C202.626 8.69 202.496 9.002 202.236 9.262C201.976 9.50467 201.664 9.626 201.3 9.626ZM202.288 23.978H200.338V11.42H202.288V23.978Z" fill="#60AC22" style="fill:#60AC22;fill:color(display-p3 0.3768 0.6749 0.1322);fill-opacity:1;"/>
<rect x="296" width="28" height="29" rx="14" fill="#05060B" style="fill:#05060B;fill:color(display-p3 0.0196 0.0235 0.0431);fill-opacity:1;"/>
<path d="M310.3 9.626C309.953 9.626 309.65 9.50467 309.39 9.262C309.13 9.002 309 8.69 309 8.326C309 7.962 309.13 7.65 309.39 7.39C309.65 7.13 309.953 7 310.3 7C310.664 7 310.976 7.13 311.236 7.39C311.496 7.65 311.626 7.962 311.626 8.326C311.626 8.69 311.496 9.002 311.236 9.262C310.976 9.50467 310.664 9.626 310.3 9.626ZM311.288 23.978H309.338V11.42H311.288V23.978Z" fill="#60AC22" style="fill:#60AC22;fill:color(display-p3 0.3768 0.6749 0.1322);fill-opacity:1;"/>
<rect x="389" width="29" height="29" rx="14.5" fill="#05060B" style="fill:#05060B;fill:color(display-p3 0.0196 0.0235 0.0431);fill-opacity:1;"/>
<path d="M404.3 9.626C403.953 9.626 403.65 9.50467 403.39 9.262C403.13 9.002 403 8.69 403 8.326C403 7.962 403.13 7.65 403.39 7.39C403.65 7.13 403.953 7 404.3 7C404.664 7 404.976 7.13 405.236 7.39C405.496 7.65 405.626 7.962 405.626 8.326C405.626 8.69 405.496 9.002 405.236 9.262C404.976 9.50467 404.664 9.626 404.3 9.626ZM405.288 23.978H403.338V11.42H405.288V23.978Z" fill="#60AC22" style="fill:#60AC22;fill:color(display-p3 0.3768 0.6749 0.1322);fill-opacity:1;"/>
<rect x="367" y="190" width="29" height="29" rx="14.5" fill="#05060B" style="fill:#05060B;fill:color(display-p3 0.0196 0.0235 0.0431);fill-opacity:1;"/>
<path d="M382.3 199.626C381.953 199.626 381.65 199.505 381.39 199.262C381.13 199.002 381 198.69 381 198.326C381 197.962 381.13 197.65 381.39 197.39C381.65 197.13 381.953 197 382.3 197C382.664 197 382.976 197.13 383.236 197.39C383.496 197.65 383.626 197.962 383.626 198.326C383.626 198.69 383.496 199.002 383.236 199.262C382.976 199.505 382.664 199.626 382.3 199.626ZM383.288 213.978H381.338V201.42H383.288V213.978Z" fill="#60AC22" style="fill:#60AC22;fill:color(display-p3 0.3768 0.6749 0.1322);fill-opacity:1;"/>
<rect x="245" y="104" width="32" height="32" rx="16" fill="#05060B" style="fill:#05060B;fill:color(display-p3 0.0196 0.0235 0.0431);fill-opacity:1;"/>
<path d="M261.3 114.626C260.953 114.626 260.65 114.505 260.39 114.262C260.13 114.002 260 113.69 260 113.326C260 112.962 260.13 112.65 260.39 112.39C260.65 112.13 260.953 112 261.3 112C261.664 112 261.976 112.13 262.236 112.39C262.496 112.65 262.626 112.962 262.626 113.326C262.626 113.69 262.496 114.002 262.236 114.262C261.976 114.505 261.664 114.626 261.3 114.626ZM262.288 128.978H260.338V116.42H262.288V128.978Z" fill="#60AC22" style="fill:#60AC22;fill:color(display-p3 0.3768 0.6749 0.1322);fill-opacity:1;"/>
<rect y="150" width="28" height="28" rx="14" fill="#05060B" style="fill:#05060B;fill:color(display-p3 0.0196 0.0235 0.0431);fill-opacity:1;"/>
<path d="M14.3 158.626C13.9533 158.626 13.65 158.505 13.39 158.262C13.13 158.002 13 157.69 13 157.326C13 156.962 13.13 156.65 13.39 156.39C13.65 156.13 13.9533 156 14.3 156C14.664 156 14.976 156.13 15.236 156.39C15.496 156.65 15.626 156.962 15.626 157.326C15.626 157.69 15.496 158.002 15.236 158.262C14.976 158.505 14.664 158.626 14.3 158.626ZM15.288 172.978H13.338V160.42H15.288V172.978Z" fill="#60AC22" style="fill:#60AC22;fill:color(display-p3 0.3768 0.6749 0.1322);fill-opacity:1;"/>
<rect x="45" y="267" width="29" height="29" rx="14.5" fill="#05060B" style="fill:#05060B;fill:color(display-p3 0.0196 0.0235 0.0431);fill-opacity:1;"/>
<path d="M60.3 276.626C59.9533 276.626 59.65 276.505 59.39 276.262C59.13 276.002 59 275.69 59 275.326C59 274.962 59.13 274.65 59.39 274.39C59.65 274.13 59.9533 274 60.3 274C60.664 274 60.976 274.13 61.236 274.39C61.496 274.65 61.626 274.962 61.626 275.326C61.626 275.69 61.496 276.002 61.236 276.262C60.976 276.505 60.664 276.626 60.3 276.626ZM61.288 290.978H59.338V278.42H61.288V290.978Z" fill="#60AC22" style="fill:#60AC22;fill:color(display-p3 0.3768 0.6749 0.1322);fill-opacity:1;"/>
<rect x="212" y="289" width="29" height="28" rx="14" fill="#05060B" style="fill:#05060B;fill:color(display-p3 0.0196 0.0235 0.0431);fill-opacity:1;"/>
<path d="M227.3 297.626C226.953 297.626 226.65 297.505 226.39 297.262C226.13 297.002 226 296.69 226 296.326C226 295.962 226.13 295.65 226.39 295.39C226.65 295.13 226.953 295 227.3 295C227.664 295 227.976 295.13 228.236 295.39C228.496 295.65 228.626 295.962 228.626 296.326C228.626 296.69 228.496 297.002 228.236 297.262C227.976 297.505 227.664 297.626 227.3 297.626ZM228.288 311.978H226.338V299.42H228.288V311.978Z" fill="#60AC22" style="fill:#60AC22;fill:color(display-p3 0.3768 0.6749 0.1322);fill-opacity:1;"/>
<rect x="367" y="296" width="29" height="29" rx="14.5" fill="#05060B" style="fill:#05060B;fill:color(display-p3 0.0196 0.0235 0.0431);fill-opacity:1;"/>
<path d="M382.3 305.626C381.953 305.626 381.65 305.505 381.39 305.262C381.13 305.002 381 304.69 381 304.326C381 303.962 381.13 303.65 381.39 303.39C381.65 303.13 381.953 303 382.3 303C382.664 303 382.976 303.13 383.236 303.39C383.496 303.65 383.626 303.962 383.626 304.326C383.626 304.69 383.496 305.002 383.236 305.262C382.976 305.505 382.664 305.626 382.3 305.626ZM383.288 319.978H381.338V307.42H383.288V319.978Z" fill="#60AC22" style="fill:#60AC22;fill:color(display-p3 0.3768 0.6749 0.1322);fill-opacity:1;"/>
</svg>
