<svg width="61" height="49" viewBox="0 0 61 49" fill="none" xmlns="http://www.w3.org/2000/svg">
<g id="&#226;&#128;&#156;">
<path id="&#226;&#128;&#156;_2" d="M0 32.5221C0 26.1622 1.60911 20.0914 4.82734 14.3097C8.19185 8.52803 12.5072 3.75811 17.7734 0L25.8921 6.50443C22.3813 8.81711 19.2362 11.9248 16.4568 15.8274C13.6775 19.5855 12.1415 23.1991 11.8489 26.6681H12.946C13.6775 26.5236 14.2626 26.4513 14.7014 26.4513C17.7734 26.4513 20.2602 27.5354 22.1619 29.7035C24.2098 31.7271 25.2338 34.3289 25.2338 37.5089C25.2338 40.6888 24.0636 43.4351 21.723 45.7478C19.5288 47.9159 16.8225 49 13.6043 49C9.80096 49 6.58273 47.5546 3.94964 44.6637C1.31655 41.6283 0 37.5811 0 32.5221ZM35.1079 32.5221C35.1079 26.1622 36.717 20.0914 39.9352 14.3097C43.2998 8.52803 47.6151 3.75811 52.8813 0L61 6.50443C57.4892 8.81711 54.3441 11.9248 51.5647 15.8274C48.9317 19.5855 47.3957 23.1991 46.9568 26.6681H48.054C48.7854 26.5236 49.3705 26.4513 49.8094 26.4513C52.8813 26.4513 55.4412 27.5354 57.4892 29.7035C59.5372 31.7271 60.5611 34.3289 60.5611 37.5089C60.5611 40.6888 59.3909 43.4351 57.0504 45.7478C54.7098 47.9159 51.9305 49 48.7122 49C44.9089 49 41.6906 47.5546 39.0576 44.6637C36.4245 41.6283 35.1079 37.5811 35.1079 32.5221Z" fill="#E0E0E0" style="fill:#E0E0E0;fill:color(display-p3 0.8784 0.8784 0.8784);fill-opacity:1;"/>
</g>
</svg>
