<svg width="61" height="50" viewBox="0 0 61 50" fill="none" xmlns="http://www.w3.org/2000/svg">
<g id="&#226;&#128;&#156;">
<path id="&#226;&#128;&#156;_2" d="M61 16.8142C61 23.3038 59.3909 29.4985 56.1727 35.3982C52.8082 41.2979 48.4928 46.1652 43.2266 50L35.1079 43.3628C38.6187 41.0029 41.7638 37.8319 44.5432 33.8496C47.3225 30.0147 48.8585 26.3274 49.1511 22.7876H48.054C47.3225 22.9351 46.7374 23.0088 46.2986 23.0088C43.2266 23.0088 40.7398 21.9027 38.8381 19.6903C36.7902 17.6254 35.7662 14.9705 35.7662 11.7257C35.7662 8.48083 36.9364 5.67847 39.277 3.31858C41.4712 1.1062 44.1775 0 47.3957 0C51.199 0 54.4173 1.47493 57.0504 4.42478C59.6835 7.52212 61 11.6519 61 16.8142ZM25.8921 16.8142C25.8921 23.3038 24.283 29.4985 21.0648 35.3982C17.7002 41.2979 13.3849 46.1652 8.11871 50L0 43.3628C3.51079 41.0029 6.65588 37.8319 9.43526 33.8496C12.0683 30.0147 13.6043 26.3274 14.0432 22.7876H12.946C12.2146 22.9351 11.6295 23.0088 11.1906 23.0088C8.11871 23.0088 5.55875 21.9027 3.51079 19.6903C1.46283 17.6254 0.438854 14.9705 0.438854 11.7257C0.438854 8.48083 1.60912 5.67847 3.94965 3.31858C6.29017 1.1062 9.06955 0 12.2878 0C16.0911 0 19.3094 1.47493 21.9424 4.42478C24.5755 7.52212 25.8921 11.6519 25.8921 16.8142Z" fill="#E0E0E0" style="fill:#E0E0E0;fill:color(display-p3 0.8784 0.8784 0.8784);fill-opacity:1;"/>
</g>
</svg>
