<svg width="28" height="28" viewBox="0 0 28 28" fill="none" xmlns="http://www.w3.org/2000/svg">
<rect x="0.780762" y="1.3983" width="26.0175" height="25.7797" rx="12.8898" fill="#60AC22" style="fill:#60AC22;fill:color(display-p3 0.3768 0.6749 0.1322);fill-opacity:1;"/>
<rect x="0.780762" y="1.3983" width="26.0175" height="25.7797" rx="12.8898" stroke="white" style="stroke:white;stroke-opacity:1;"/>
<g clip-path="url(#clip0_3331_6108)">
<path d="M12.186 17.8702L8.93599 14.6202C8.74074 14.425 8.74074 14.1084 8.93599 13.9131L9.64308 13.206C9.83834 13.0108 10.1549 13.0108 10.3502 13.206L12.5395 15.3954L17.2289 10.706C17.4242 10.5108 17.7408 10.5108 17.936 10.706L18.6431 11.4131C18.8384 11.6084 18.8384 11.925 18.6431 12.1202L12.8931 17.8703C12.6978 18.0655 12.3812 18.0655 12.186 17.8702Z" fill="white" style="fill:white;fill-opacity:1;"/>
</g>
<defs>
<clipPath id="clip0_3331_6108">
<rect width="10" height="10" fill="white" style="fill:white;fill-opacity:1;" transform="translate(8.78955 9.28813)"/>
</clipPath>
</defs>
</svg>
