<svg width="24" height="20" viewBox="0 0 24 20" fill="none" xmlns="http://www.w3.org/2000/svg">
<g id="Black">
<path id="Vector" d="M6.11717 0.020401C3.07029 0.245401 0.539043 2.55634 0.0656057 5.55634C-0.0375193 6.20321 -0.00470676 7.50165 0.131231 8.0829C0.440606 9.40477 1.02186 10.4735 2.04842 11.6079C3.13123 12.8032 6.08436 15.4516 9.53904 18.3251C11.1375 19.6516 11.3484 19.8204 11.5312 19.9141C11.7656 20.036 12.2484 20.0266 12.4922 19.9001C12.7734 19.7595 16.5984 16.5579 18.4687 14.9032C20.3109 13.272 21.8625 11.772 22.364 11.1391C23.1328 10.1688 23.6015 9.21727 23.8687 8.0829C24.0047 7.48759 24.0375 6.18915 23.9297 5.53759C23.4562 2.6829 21.2062 0.489151 18.3047 0.0625877C17.7937 -0.0124111 16.7015 -0.0030365 16.2187 0.0813389C15.2578 0.250088 14.3015 0.639149 13.5 1.18759C13.2703 1.34696 12.839 1.7079 12.539 1.99384L12 2.50946L11.4609 1.99384C11.1609 1.7079 10.7344 1.35165 10.5047 1.19227C9.19686 0.296963 7.72498 -0.0967865 6.11717 0.020401ZM7.89842 2.33134C8.37654 2.47665 8.94373 2.74852 9.29998 3.00165C9.43123 3.0954 9.94217 3.56884 10.4297 4.05165C10.9219 4.53446 11.3906 4.96102 11.4797 5.0079C11.5687 5.05009 11.7609 5.10165 11.9156 5.11102C12.4031 5.1579 12.5156 5.0829 13.5469 4.07509C14.0484 3.57821 14.5687 3.0954 14.7 3.00165C15.0469 2.75321 15.614 2.47665 16.1015 2.33134C16.4953 2.20946 16.5797 2.20009 17.3437 2.20009C18.1031 2.20009 18.1969 2.20946 18.5765 2.32665C20.0484 2.78134 21.1453 3.82196 21.6047 5.20009C22.1015 6.6954 21.7922 8.30321 20.7515 9.67196C20.3297 10.2204 18.8297 11.6735 17.1094 13.1876C15.2344 14.8423 12.0844 17.5001 12 17.5001C11.9437 17.5001 10.2609 16.0985 8.53123 14.6126C5.39998 11.922 3.60467 10.2157 3.03748 9.37665C1.12029 6.55477 2.48436 2.9829 5.77029 2.24228C5.98123 2.1954 6.27654 2.17665 6.77342 2.19071C7.36873 2.20477 7.54217 2.22352 7.89842 2.33134Z" fill="#C7C7C7" style="fill:#C7C7C7;fill:color(display-p3 0.7822 0.7822 0.7822);fill-opacity:1;"/>
</g>
</svg>
